<svg width="30" height="30" viewBox="0 0 30 30" fill="none" xmlns="http://www.w3.org/2000/svg">
<path d="M26.4925 20.9912C26.055 24.0912 25.8362 25.6425 24.715 26.5712C23.5937 27.5 21.94 27.5 18.6312 27.5H11.3687C8.06123 27.5 6.40623 27.5 5.28498 26.5712C4.16373 25.6425 3.94498 24.0925 3.50748 20.9912L2.97998 17.2413C2.42123 13.2863 2.14248 11.31 3.32748 10.0287C4.51248 8.75 6.62248 8.75 10.84 8.75H19.16C23.3775 8.75 25.4875 8.75 26.6725 10.03C27.6087 11.0413 27.6312 12.4875 27.3237 15" stroke="#1E293B" stroke-width="1.5" stroke-linecap="round"/>
<path d="M24.4525 8.75C24.5196 8.36692 24.5021 7.97379 24.4012 7.59821C24.3002 7.22262 24.1183 6.87369 23.8681 6.57589C23.618 6.2781 23.3057 6.03866 22.9531 5.87439C22.6006 5.71012 22.2164 5.625 21.8275 5.625H8.17251C7.78359 5.625 7.39939 5.71012 7.04687 5.87439C6.69435 6.03866 6.38205 6.2781 6.1319 6.57589C5.88176 6.87369 5.69982 7.22262 5.59886 7.59821C5.49791 7.97379 5.48038 8.36692 5.54751 8.75M21.875 5.625C21.91 5.3 21.9288 5.13875 21.9288 5.005C21.9301 4.38712 21.7026 3.79062 21.2901 3.33058C20.8776 2.87054 20.3094 2.57955 19.695 2.51375C19.5625 2.5 19.4 2.5 19.075 2.5H10.925C10.6 2.5 10.4363 2.5 10.3038 2.51375C9.68939 2.57955 9.12115 2.87054 8.70866 3.33058C8.29617 3.79062 8.06866 4.38712 8.07001 5.005C8.07001 5.13875 8.08751 5.30125 8.12376 5.625" stroke="#1E293B" stroke-width="1.5"/>
<path d="M20.625 16.25C21.6605 16.25 22.5 15.4105 22.5 14.375C22.5 13.3395 21.6605 12.5 20.625 12.5C19.5895 12.5 18.75 13.3395 18.75 14.375C18.75 15.4105 19.5895 16.25 20.625 16.25Z" stroke="#1E293B" stroke-width="1.5"/>
<path d="M25 25L21.395 22.3137C20.2325 21.4487 18.5 21.3625 17.22 22.1062L16.8875 22.3C15.9975 22.8175 14.7875 22.7312 14.02 22.095L9.22121 18.1237C8.26371 17.3312 6.72746 17.2887 5.70871 18.0262L4.05371 19.2262" stroke="#1E293B" stroke-width="1.5" stroke-linecap="round"/>
</svg>
